<svg width="44" height="27" viewBox="0 0 44 27" fill="none" xmlns="http://www.w3.org/2000/svg">
<path d="M0 1.43372C3.0386 1.43372 6.07719 1.43372 9.20786 1.43372C10.1455 3.50086 10.1455 3.50086 10.4851 4.28869C10.5232 4.37663 10.5613 4.46458 10.6006 4.55519C10.7191 4.82871 10.8374 5.10234 10.9557 5.376C11.4293 6.47212 11.9049 7.56606 12.4037 8.64733C12.5968 9.06583 12.7834 9.48791 12.9677 9.91159C13.0005 9.98587 13.0332 10.0602 13.0669 10.1367C13.0976 10.2073 13.1284 10.278 13.1601 10.3507C13.1872 10.4127 13.2143 10.4747 13.2422 10.5386C13.3002 10.6912 13.3002 10.6912 13.3002 10.8481C13.3616 10.8511 13.3616 10.8511 13.4242 10.8541C13.6116 10.8633 13.7991 10.8729 13.9866 10.8825C14.0509 10.8855 14.1152 10.8886 14.1815 10.8918C14.5287 10.9099 14.867 10.9399 15.21 11.005C15.2336 10.9136 15.2572 10.8222 15.2814 10.728C15.4297 10.2177 15.6361 9.7382 15.8379 9.25391C15.9615 8.95729 16.0838 8.66001 16.2062 8.36275C16.2313 8.30177 16.2565 8.24079 16.2824 8.17797C16.5347 7.56412 16.7788 6.94609 17.0218 6.32725C17.3679 5.44689 17.7185 4.56916 18.0747 3.69416C18.0954 3.64315 18.1161 3.59214 18.1375 3.53958C18.4251 2.83178 18.7231 2.13096 19.0296 1.43372C19.2187 1.69389 19.3278 1.97427 19.4372 2.28567C19.4661 2.36612 19.4661 2.36612 19.4955 2.44819C19.5373 2.56485 19.579 2.6816 19.6204 2.79841C19.7344 3.11915 19.8497 3.43924 19.9648 3.75943C19.9888 3.82641 20.0128 3.89339 20.0376 3.96239C20.294 4.67602 20.5567 5.38651 20.82 6.09679C20.9179 6.36115 21.0158 6.62552 21.1136 6.88991C21.1383 6.95659 21.163 7.02327 21.1884 7.09198C21.479 7.87756 21.7677 8.66409 22.0562 9.45068C22.0831 9.52399 22.11 9.59731 22.1378 9.67284C22.3569 10.2702 22.576 10.8677 22.7951 11.4651C22.9865 11.9868 23.1778 12.5085 23.3692 13.0301C23.3962 13.1035 23.4231 13.1769 23.4508 13.2526C23.8287 14.2823 24.208 15.3114 24.5884 16.3399C25.1324 17.8106 25.6732 19.2829 26.2133 20.7556C26.4161 21.3086 26.6191 21.8616 26.8222 22.4145C26.8813 22.5755 26.9404 22.7364 26.9995 22.8974C27.0845 23.1289 27.1696 23.3604 27.2546 23.592C27.3803 23.9342 27.5059 24.2765 27.6313 24.6189C27.7109 24.8363 27.7911 25.0534 27.8722 25.27C27.9036 25.3545 27.935 25.439 27.9673 25.526C27.9936 25.5962 28.02 25.6663 28.0471 25.7386C28.101 25.9112 28.101 25.9112 28.101 26.1466C25.5126 26.1466 22.9242 26.1466 20.2573 26.1466C20.2573 26.1207 20.2573 26.0948 20.2573 26.0681C20.5756 25.9997 20.891 25.9678 21.2138 25.9477C21.259 25.9447 21.3041 25.9416 21.3507 25.9386C21.5177 25.9275 21.6846 25.9169 21.8516 25.9063C22.4129 25.8699 22.4129 25.8699 22.9856 25.8327C21.5 25.7939 21.5 25.7939 19.9845 25.7543C19.9845 25.7284 19.9845 25.7025 19.9845 25.6758C21.6501 25.4687 23.3157 25.2616 25.0318 25.0482C24.8314 24.933 24.6464 24.9494 24.4228 24.9392C24.3499 24.9358 24.3499 24.9358 24.2756 24.9322C24.1147 24.9247 23.9538 24.9176 23.7928 24.9106C23.6814 24.9055 23.57 24.9003 23.4585 24.8951C23.165 24.8815 22.8714 24.8683 22.5779 24.8553C22.2784 24.8418 21.979 24.828 21.6795 24.8142C21.0918 24.7872 20.504 24.7607 19.9163 24.7344C19.8938 24.6826 19.8713 24.6308 19.8481 24.5775C21.2211 24.4221 22.5941 24.2668 24.0087 24.1068C23.1436 24.1324 23.1436 24.1324 22.2786 24.1584C21.5137 24.1809 20.7496 24.1901 19.9845 24.1852C19.9845 24.1593 19.9845 24.1334 19.9845 24.1068C20.3809 24.0746 20.7774 24.0425 21.1738 24.0105C21.3082 23.9997 21.4425 23.9888 21.5768 23.9779C21.7721 23.962 21.9673 23.9463 22.1626 23.9305C22.2264 23.9254 22.2903 23.9202 22.3561 23.9149C22.6598 23.8906 22.9635 23.8679 23.2675 23.849C23.3213 23.8456 23.3751 23.8423 23.4305 23.8388C23.5307 23.8327 23.6308 23.8269 23.7309 23.8215C23.9805 23.8092 23.9805 23.8092 24.2133 23.7145C24.1666 23.7107 24.12 23.707 24.0719 23.7031C23.5851 23.6639 23.0982 23.6244 22.6114 23.5847C22.4298 23.57 22.2483 23.5553 22.0668 23.5407C21.8053 23.5196 21.5439 23.4983 21.2825 23.477C21.2018 23.4705 21.1211 23.4641 21.0379 23.4574C20.6392 23.4247 20.244 23.385 19.8481 23.3222C19.8481 23.2963 19.8481 23.2704 19.8481 23.2438C20.9953 23.127 22.1427 23.0358 23.2925 22.9594C23.4493 22.9488 23.6062 22.9382 23.763 22.9275C24.1404 22.9019 24.5179 22.8766 24.8953 22.8515C23.7821 22.7396 22.6686 22.6465 21.5532 22.5671C21.4062 22.5565 21.2593 22.5459 21.1123 22.5352C20.7591 22.5097 20.4059 22.4844 20.0527 22.4592C20.0527 22.4075 20.0527 22.3557 20.0527 22.3023C21.4257 22.147 22.7987 21.9917 24.2133 21.8316C23.0319 21.7832 23.0319 21.7832 21.8505 21.7354C21.7011 21.7292 21.5518 21.7229 21.4024 21.7167C21.2884 21.7122 21.2884 21.7122 21.172 21.7076C20.7284 21.6888 20.2892 21.6546 19.8481 21.5963C19.8481 21.5704 19.8481 21.5445 19.8481 21.5178C21.131 21.3883 22.414 21.2589 23.7358 21.1255C22.785 21.0772 22.785 21.0772 21.8342 21.0293C21.1937 20.9966 20.5545 20.9631 19.9163 20.8902C20.1025 20.7732 20.2609 20.7073 20.4705 20.6722C20.5251 20.6628 20.5797 20.6534 20.636 20.6437C20.6942 20.6342 20.7525 20.6247 20.8125 20.615C20.8727 20.6047 20.9329 20.5945 20.9949 20.584C21.1866 20.5515 21.3784 20.5198 21.5703 20.4881C21.7005 20.4662 21.8307 20.4442 21.9609 20.4222C22.2796 20.3684 22.5985 20.3153 22.9174 20.2625C22.7904 20.1165 22.5787 20.1669 22.4087 20.162C22.3414 20.1599 22.3414 20.1599 22.2727 20.1576C22.1281 20.153 21.9835 20.1489 21.8388 20.1449C21.6969 20.1408 21.555 20.1366 21.413 20.1321C21.2822 20.1279 21.1515 20.1242 21.0207 20.1205C20.6519 20.1013 20.2841 20.0624 19.9163 20.0272C19.9163 19.3023 19.9163 18.5774 19.9163 17.8305C19.6336 18.3069 19.6336 18.3069 19.3511 18.7833C19.3156 18.8431 19.2801 18.9028 19.2435 18.9644C19.2075 19.0252 19.1714 19.086 19.1342 19.1486C19.0296 19.3211 19.0296 19.3211 18.913 19.4818C18.7916 19.693 18.8282 19.8557 18.8638 20.0974C18.9086 20.3491 18.9558 20.6001 19.004 20.8509C19.2268 22.1481 19.024 23.4467 18.3918 24.5615C17.823 25.4359 17.033 26.0244 16.0967 26.225C15.4956 26.285 14.9458 26.2413 14.3625 26.0473C14.145 25.9759 13.9338 25.9405 13.7095 25.9112C13.645 25.2811 13.6209 24.6523 13.6029 24.0185C13.5931 23.6852 13.5832 23.3518 13.5731 23.0084C13.483 23.811 13.393 24.6136 13.3002 25.4405C12.4805 24.969 12.0386 23.9237 11.7418 22.9682C11.6674 22.7088 11.6069 22.4497 11.5477 22.1853C11.3951 21.5664 11.1611 21.0128 10.9045 20.444C10.8622 20.3482 10.8199 20.2525 10.7777 20.1567C10.5637 19.6726 10.3443 19.1919 10.1235 18.712C9.72453 17.8443 9.34075 16.9686 8.96062 16.0898C8.89802 15.9454 8.83541 15.801 8.77278 15.6566C8.6221 15.3091 8.47159 14.9615 8.32118 14.6139C8.2308 16.9906 8.23005 19.3697 8.21461 21.7483C8.20476 23.1997 8.19491 24.6511 8.18477 26.1466C5.4838 26.1724 2.78282 26.1983 0 26.225C0 25.5778 0 24.9305 0 24.2637C0.170921 24.1666 0.170921 24.1666 0.345295 24.0675C0.889791 23.725 1.23269 23.2923 1.43233 22.6161C1.49011 22.3363 1.50965 22.0762 1.51133 21.7888C1.512 21.702 1.51267 21.6153 1.51336 21.5259C1.51375 21.4313 1.51414 21.3366 1.51455 21.2391C1.51522 21.1386 1.51589 21.0381 1.51659 20.9346C1.51843 20.6578 1.51986 20.381 1.52122 20.1043C1.52274 19.8103 1.52463 19.5164 1.52647 19.2225C1.53074 18.5276 1.53439 17.8327 1.53791 17.1378C1.53923 16.879 1.54058 16.6202 1.54193 16.3615C1.54759 15.2749 1.55313 14.1883 1.55818 13.1017C1.56384 11.8895 1.57059 10.6775 1.5813 9.46536C1.58544 8.99415 1.58851 8.52294 1.59103 8.05172C1.59261 7.76428 1.59476 7.47688 1.59839 7.18946C1.60224 6.88438 1.6035 6.57934 1.60445 6.27423C1.60599 6.19034 1.60754 6.10645 1.60913 6.02002C1.60758 5.3949 1.46752 4.8922 1.10884 4.41305C0.756963 4.02783 0.477388 3.92851 0 3.70887C0 2.95807 0 2.20727 0 1.43372ZM13.5731 11.3973C13.6739 11.6425 13.7748 11.8876 13.8757 12.1328C13.9044 12.2026 13.9332 12.2724 13.9627 12.3443C13.9902 12.411 14.0177 12.4778 14.046 12.5465C14.0714 12.6082 14.0967 12.6698 14.1228 12.7333C14.1661 12.8376 14.2102 12.9415 14.2551 13.0448C14.3002 13.0448 14.3452 13.0448 14.3916 13.0448C14.4829 12.826 14.5737 12.6069 14.6644 12.3878C14.7034 12.2943 14.7034 12.2943 14.7432 12.199C14.7679 12.1393 14.7925 12.0797 14.8178 12.0182C14.8521 11.9356 14.8521 11.9356 14.8871 11.8514C14.9458 11.7122 14.9458 11.7122 14.9372 11.5542C14.7994 11.5275 14.6616 11.5015 14.5237 11.4758C14.4086 11.4539 14.4086 11.4539 14.2911 11.4316C14.0491 11.3971 13.8167 11.3916 13.5731 11.3973Z" fill="url(#paint0_linear_221_697)"/>
<path d="M39.2603 0.00183875C39.3396 0.00123196 39.4189 0.000625176 39.5006 0C39.951 0.001172 40.3512 0.0438784 40.7864 0.178359C40.5486 0.573127 40.2432 0.815075 39.9083 1.09038C39.8511 1.13917 39.7939 1.18796 39.735 1.23823C39.4693 1.46463 39.2052 1.68179 38.9201 1.87461C38.6048 2.09847 38.3281 2.29599 38.2112 2.71833C38.1332 3.20937 38.1338 3.7001 38.2628 4.17948C38.4682 4.51313 38.7119 4.67779 39.013 4.88557C39.1376 5.01171 39.2599 5.1408 39.3797 5.27293C39.5898 5.50214 39.7607 5.64165 40.0361 5.74855C40.094 5.69061 40.1518 5.63266 40.2115 5.57295C40.6975 5.0885 41.1911 4.61964 41.6989 4.16569C41.9738 3.91998 42.2455 3.6699 42.5171 3.41947C42.5622 3.3779 42.6073 3.33634 42.6538 3.29351C42.7589 3.19661 42.864 3.09965 42.969 3.00268C43.014 3.02857 43.059 3.05446 43.1054 3.08114C43.1106 3.42686 43.1142 3.77255 43.1167 4.11831C43.1177 4.2353 43.1191 4.3523 43.1209 4.46928C43.1391 5.68432 43.1224 6.79113 42.3552 7.70989C42.3091 7.77966 42.2631 7.84943 42.2157 7.92131C41.8939 8.39005 41.6547 8.62685 41.1472 8.77054C40.3899 8.99098 39.5865 9.22596 39.1342 10.018C38.703 10.8864 38.4291 11.8522 38.143 12.7929C37.9288 13.4887 37.6678 14.1604 37.4077 14.8348C37.2706 15.1917 37.1368 15.5504 37.0028 15.9089C36.9506 16.0482 36.8984 16.1874 36.8461 16.3267C36.8081 16.428 36.8081 16.428 36.7693 16.5314C36.5583 17.0936 36.347 17.6557 36.1356 18.2177C36.0909 18.3366 36.0462 18.4555 36.0015 18.5743C35.913 18.8098 35.8244 19.0453 35.7358 19.2808C35.5551 19.7614 35.3744 20.2421 35.1937 20.7227C35.1033 20.9632 35.0129 21.2038 34.9224 21.4444C34.7101 22.0089 34.4979 22.5735 34.2858 23.1382C34.1861 23.4036 34.0864 23.6691 33.9866 23.9346C33.9393 24.0606 33.8919 24.1867 33.8446 24.3127C33.7788 24.488 33.713 24.6632 33.6471 24.8385C33.6281 24.8891 33.6091 24.9397 33.5896 24.9919C33.4444 25.378 33.2958 25.762 33.1473 26.1464C31.6392 26.1464 30.1312 26.1464 28.5775 26.1464C27.5648 23.4585 27.5648 23.4585 27.257 22.6015C27.1742 22.371 27.0909 22.1407 27.0078 21.9104C26.9631 21.7867 26.9185 21.6631 26.8739 21.5394C26.6074 20.801 26.3393 20.0634 26.0709 19.3259C26.0453 19.2557 26.0198 19.1855 25.9935 19.1132C25.5679 17.9437 25.1396 16.7756 24.7105 15.6079C24.3139 14.5288 23.919 13.4489 23.5259 12.3681C23.5007 12.2987 23.4755 12.2294 23.4495 12.1579C23.2463 11.5993 23.0433 11.0406 22.8403 10.4819C22.6625 9.99263 22.4847 9.50339 22.3067 9.01418C22.2691 8.91072 22.2691 8.91072 22.2307 8.80516C21.8552 7.77279 21.4775 6.74154 21.0985 5.71083C20.6974 4.61967 20.2969 3.52827 19.9025 2.4339C19.8684 2.3396 19.8343 2.24531 19.7993 2.14816C19.769 2.06406 19.7388 1.97995 19.7077 1.8933C19.6817 1.82087 19.6556 1.74843 19.6288 1.6738C19.5742 1.51207 19.5742 1.51207 19.5742 1.43361C21.0147 1.40772 22.4553 1.38183 23.9394 1.35516C24.2251 2.05926 24.5081 2.76083 24.7755 3.47371C24.8231 3.60012 24.8231 3.60012 24.8717 3.72908C24.9732 3.99847 25.0744 4.26795 25.1757 4.53743C25.2462 4.72494 25.3168 4.91245 25.3874 5.09995C25.5255 5.46651 25.6634 5.8331 25.8013 6.19974C25.9521 6.60084 26.103 7.00187 26.2542 7.40282C26.2732 7.45323 26.2922 7.50365 26.3118 7.55559C26.33 7.60392 26.3482 7.65226 26.367 7.70206C26.5022 8.06082 26.6373 8.41965 26.7725 8.77847C26.9348 9.2095 27.0972 9.64049 27.2595 10.0715C27.3521 10.3173 27.4447 10.563 27.5373 10.8088C27.5743 10.9069 27.6112 11.0049 27.6482 11.103C28.0176 12.0837 28.3871 13.0643 28.7565 14.045C28.7748 14.0935 28.7931 14.1421 28.8119 14.1921C28.8489 14.2902 28.8859 14.3884 28.9229 14.4866C29.0147 14.7303 29.1065 14.974 29.1983 15.2177C29.3712 15.6763 29.5439 16.135 29.7161 16.594C29.7972 16.8102 29.8785 17.0265 29.9597 17.2427C29.9983 17.3456 30.0369 17.4485 30.0754 17.5514C30.1289 17.6943 30.1826 17.8371 30.2363 17.9799C30.2667 18.0611 30.2971 18.1423 30.3285 18.2259C30.4213 18.4637 30.5209 18.6964 30.6237 18.9287C31.2487 17.2332 31.8646 15.5337 32.4694 13.8284C32.8219 12.8345 33.1764 11.8417 33.5329 10.8497C33.6154 10.6199 33.6976 10.39 33.7797 10.16C34.0156 9.50028 34.2537 8.84228 34.5045 8.1898C34.5628 8.03615 34.6209 7.88243 34.6789 7.72868C34.7306 7.59386 34.7843 7.46008 34.838 7.32638C35.0684 6.71574 35.0798 6.24504 34.9889 5.59165C34.9799 5.52235 34.9709 5.45306 34.9617 5.38166C34.9274 5.13235 34.8883 4.88431 34.8477 4.63626C34.6458 3.29814 35.3268 2.02686 35.9515 0.949716C36.1861 0.636874 36.5048 0.549299 36.839 0.433333C36.9297 0.399201 36.9297 0.399201 37.0223 0.364379C37.7714 0.090885 38.4754 -0.0042072 39.2603 0.00183875Z" fill="url(#paint1_linear_221_697)"/>
<path d="M19.0978 1.59058C19.2714 1.79022 19.3399 2.01323 19.4306 2.2703C19.4499 2.32416 19.4692 2.37801 19.4892 2.4335C19.5313 2.55111 19.5734 2.66879 19.6153 2.78653C19.7302 3.10933 19.8464 3.43156 19.9624 3.75387C19.9866 3.82133 20.0109 3.88879 20.0358 3.9583C20.2931 4.67316 20.5562 5.38506 20.82 6.09675C20.9179 6.3611 21.0158 6.62548 21.1136 6.88986C21.1383 6.95654 21.163 7.02323 21.1884 7.09193C21.479 7.87751 21.7677 8.66405 22.0562 9.45063C22.0966 9.5606 22.0966 9.5606 22.1378 9.6728C22.3569 10.2702 22.576 10.8676 22.7951 11.4651C22.9865 11.9868 23.1778 12.5084 23.3692 13.0301C23.3962 13.1035 23.4231 13.1769 23.4508 13.2525C23.8287 14.2823 24.208 15.3113 24.5884 16.3398C25.1324 17.8106 25.6732 19.2829 26.2133 20.7555C26.4161 21.3086 26.6191 21.8615 26.8222 22.4144C26.8813 22.5754 26.9404 22.7364 26.9995 22.8974C27.0845 23.1289 27.1696 23.3604 27.2546 23.5919C27.3803 23.9341 27.5059 24.2764 27.6313 24.6188C27.7109 24.8363 27.7911 25.0533 27.8722 25.27C27.9036 25.3545 27.935 25.4389 27.9673 25.5259C27.9936 25.5961 28.02 25.6663 28.0471 25.7386C28.101 25.9111 28.101 25.9111 28.101 26.1465C25.5126 26.1465 22.9242 26.1465 20.2573 26.1465C20.2573 26.1206 20.2573 26.0947 20.2573 26.0681C20.5756 25.9997 20.891 25.9677 21.2138 25.9476C21.2816 25.9431 21.2816 25.9431 21.3507 25.9385C21.5177 25.9275 21.6846 25.9169 21.8516 25.9062C22.4129 25.8698 22.4129 25.8698 22.9856 25.8327C21.5 25.7939 21.5 25.7939 19.9845 25.7542C19.9845 25.7283 19.9845 25.7025 19.9845 25.6758C21.6501 25.4687 23.3157 25.2615 25.0318 25.0482C24.8314 24.9329 24.6464 24.9494 24.4228 24.9392C24.3742 24.9369 24.3256 24.9346 24.2756 24.9322C24.1147 24.9246 23.9538 24.9176 23.7928 24.9106C23.6814 24.9054 23.57 24.9003 23.4585 24.8951C23.165 24.8815 22.8714 24.8683 22.5779 24.8552C22.2784 24.8418 21.979 24.828 21.6795 24.8142C21.0918 24.7872 20.504 24.7606 19.9163 24.7343C19.8938 24.6826 19.8713 24.6308 19.8481 24.5774C21.2211 24.4221 22.5941 24.2668 24.0087 24.1067C23.1436 24.1323 23.1436 24.1323 22.2786 24.1584C21.5137 24.1808 20.7496 24.19 19.9845 24.1852C19.9845 24.1593 19.9845 24.1334 19.9845 24.1067C20.3809 24.0745 20.7774 24.0425 21.1738 24.0105C21.3082 23.9996 21.4425 23.9887 21.5768 23.9778C21.7721 23.962 21.9673 23.9462 22.1626 23.9305C22.2264 23.9253 22.2903 23.9202 22.3561 23.9148C22.6598 23.8906 22.9635 23.8678 23.2675 23.8489C23.3482 23.8439 23.3482 23.8439 23.4306 23.8388C23.5307 23.8327 23.6308 23.8269 23.7309 23.8214C23.9805 23.8092 23.9805 23.8092 24.2133 23.7144C24.1666 23.7107 24.12 23.7069 24.0719 23.7031C23.5851 23.6638 23.0982 23.6243 22.6114 23.5847C22.4298 23.5699 22.2483 23.5553 22.0668 23.5406C21.8053 23.5196 21.5439 23.4983 21.2825 23.4769C21.2018 23.4705 21.1211 23.464 21.0379 23.4574C20.6392 23.4246 20.244 23.385 19.8481 23.3222C19.8481 23.2963 19.8481 23.2704 19.8481 23.2437C20.9953 23.1269 22.1427 23.0358 23.2925 22.9593C23.4493 22.9487 23.6062 22.9381 23.763 22.9275C24.1404 22.9019 24.5179 22.8766 24.8953 22.8515C23.7821 22.7396 22.6686 22.6465 21.5532 22.5671C21.4062 22.5565 21.2593 22.5458 21.1123 22.5352C20.7591 22.5097 20.4059 22.4844 20.0527 22.4592C20.0527 22.4074 20.0527 22.3556 20.0527 22.3023C21.4257 22.1469 22.7987 21.9916 24.2133 21.8316C23.0319 21.7832 23.0319 21.7832 21.8505 21.7354C21.7011 21.7291 21.5518 21.7229 21.4024 21.7166C21.3264 21.7137 21.2504 21.7107 21.172 21.7076C20.7284 21.6887 20.2892 21.6546 19.8481 21.5962C19.8481 21.5703 19.8481 21.5444 19.8481 21.5178C21.131 21.3883 22.414 21.2589 23.7358 21.1255C22.785 21.0772 22.785 21.0772 21.8342 21.0293C21.1937 20.9966 20.5545 20.9631 19.9163 20.8901C20.1025 20.7732 20.2609 20.7073 20.4705 20.6722C20.5251 20.6628 20.5797 20.6534 20.636 20.6437C20.6942 20.6342 20.7525 20.6247 20.8125 20.6149C20.8727 20.6047 20.9329 20.5945 20.9949 20.5839C21.1866 20.5515 21.3784 20.5197 21.5703 20.488C21.7005 20.4661 21.8307 20.4442 21.9609 20.4222C22.2796 20.3684 22.5985 20.3153 22.9174 20.2625C22.7904 20.1165 22.5787 20.1668 22.4087 20.162C22.3638 20.1605 22.3189 20.1591 22.2727 20.1576C22.1281 20.153 21.9835 20.1489 21.8388 20.1448C21.6969 20.1407 21.555 20.1365 21.413 20.132C21.2822 20.1279 21.1515 20.1242 21.0207 20.1205C20.6519 20.1013 20.2841 20.0624 19.9163 20.0271C19.9163 19.3022 19.9163 18.5773 19.9163 17.8304C19.6336 18.3068 19.6336 18.3068 19.3511 18.7833C19.3156 18.843 19.2801 18.9028 19.2435 18.9643C19.1894 19.0555 19.1894 19.0555 19.1342 19.1486C19.0296 19.3211 19.0296 19.3211 18.913 19.4817C18.7916 19.693 18.8282 19.8556 18.8638 20.0973C18.9086 20.349 18.9558 20.6 19.004 20.8509C19.2268 22.1481 19.024 23.4466 18.3918 24.5615C17.823 25.4358 17.033 26.0244 16.0967 26.225C15.4956 26.285 14.9458 26.2413 14.3625 26.0472C14.145 25.9758 13.9338 25.9405 13.7095 25.9111C13.645 25.2811 13.6209 24.6523 13.6029 24.0185C13.5931 23.6851 13.5832 23.3518 13.5731 23.0084C13.483 23.8109 13.393 24.6135 13.3003 25.4404C12.4669 24.9612 12.0274 23.8937 11.7294 22.9232C11.7076 22.8477 11.6858 22.7723 11.6633 22.6946C11.6457 22.6401 11.6281 22.5857 11.61 22.5297C11.3621 21.6481 11.6164 20.6973 11.9553 19.9C12.3034 19.1693 12.7809 18.7353 13.4153 18.36C13.457 18.3351 13.4986 18.3102 13.5415 18.2846C14.2986 17.8615 15.1593 17.6823 15.9731 17.4578C16.0623 17.4328 16.1515 17.4077 16.2407 17.3827C16.325 17.3593 16.4093 17.336 16.4961 17.3119C16.5718 17.2909 16.6475 17.2699 16.7255 17.2482C16.9152 17.2028 16.9152 17.2028 17.1198 17.2028C17.134 17.1515 17.1481 17.1003 17.1627 17.0474C17.2925 16.7186 17.4745 16.4475 17.6612 16.1584C17.7422 16.0312 17.8231 15.9039 17.9039 15.7766C17.9443 15.7129 17.9848 15.6492 18.0264 15.5836C18.2568 15.2173 18.4778 14.8438 18.6987 14.4698C18.8413 14.2285 18.9873 13.9903 19.1346 13.7527C19.1752 13.6863 19.2159 13.62 19.2578 13.5516C19.3368 13.4228 19.4164 13.2946 19.4968 13.1669C19.5327 13.1079 19.5686 13.0489 19.6056 12.9881C19.6376 12.9365 19.6696 12.8849 19.7026 12.8318C19.8887 12.4 19.8508 11.9398 19.8094 11.4739C19.8044 11.4119 19.7993 11.3499 19.7942 11.286C19.7771 11.0778 19.7593 10.8698 19.7415 10.6618C19.7292 10.513 19.717 10.3642 19.7048 10.2154C19.6775 9.88289 19.6499 9.55045 19.6222 9.21803C19.546 8.30139 19.4726 7.38444 19.3991 6.46751C19.3719 6.12879 19.3445 5.79009 19.3171 5.4514C19.3039 5.28882 19.2907 5.12623 19.2776 4.96363C19.2615 4.7643 19.2454 4.56497 19.2292 4.36566C19.1548 3.44074 19.083 2.52016 19.0978 1.59058Z" fill="#1A1A24"/>
<path d="M0 1.43372C3.03859 1.43372 6.07719 1.43372 9.20786 1.43372C10.1455 3.50086 10.1455 3.50086 10.4851 4.28869C10.5232 4.37663 10.5613 4.46458 10.6006 4.55519C10.7191 4.82871 10.8374 5.10234 10.9557 5.376C11.4534 6.52771 11.9551 7.67562 12.4794 8.81162C12.6461 9.17439 12.8075 9.54015 12.9677 9.90669C13.0004 9.98031 13.0332 10.0539 13.0669 10.1298C13.113 10.2354 13.113 10.2354 13.1601 10.3431C13.2007 10.4355 13.2007 10.4355 13.2422 10.5297C13.3002 10.6912 13.3002 10.6912 13.3002 10.9266C13.0672 10.9179 12.8342 10.9077 12.6011 10.8972C12.5351 10.8947 12.4691 10.8923 12.401 10.8898C12.3373 10.8868 12.2736 10.8837 12.2079 10.8806C12.12 10.8769 12.12 10.8769 12.0304 10.8731C11.8679 10.8481 11.8679 10.8481 11.5951 10.6912C12.169 10.4194 12.169 10.4194 12.7546 10.142C12.372 10.2197 11.9893 10.2974 11.5951 10.3774C11.8151 10.0783 12.0341 9.78915 12.2772 9.51442C12.2197 9.55497 12.1621 9.59553 12.1029 9.63731C12.0282 9.68899 11.9534 9.74067 11.8764 9.79391C11.8021 9.84579 11.7277 9.89767 11.651 9.95112C11.5876 9.98824 11.5241 10.0254 11.4587 10.0636C11.4137 10.0377 11.3686 10.0118 11.3223 9.98514C11.5023 9.51913 11.6824 9.05311 11.8679 8.57298C11.6524 8.97526 11.6524 8.97526 11.4374 9.37799C11.3966 9.45356 11.3966 9.45356 11.355 9.53066C11.3138 9.6077 11.3138 9.6077 11.2717 9.68629C11.1852 9.82932 11.0915 9.94454 10.9812 10.0636C10.9579 9.80542 10.9354 9.54715 10.913 9.28887C10.9033 9.18086 10.9033 9.18086 10.8933 9.07067C10.852 8.58921 10.8366 8.11523 10.8448 7.63154C10.7998 7.63154 10.7548 7.63154 10.7084 7.63154C10.7084 8.46001 10.7084 9.28847 10.7084 10.142C10.5247 9.93072 10.4191 9.76081 10.2898 9.50615C10.2505 9.42903 10.2112 9.35192 10.1706 9.27247C10.13 9.19212 10.0895 9.11177 10.0477 9.02899C10.0063 8.94773 9.96492 8.86647 9.9223 8.78275C9.82029 8.58226 9.71857 8.38157 9.6171 8.18071C9.63534 8.2266 9.65358 8.27249 9.67237 8.31977C9.75508 8.52826 9.83743 8.73695 9.91977 8.94563C9.94847 9.01784 9.97718 9.09005 10.0068 9.16444C10.048 9.26912 10.048 9.26912 10.09 9.3759C10.1154 9.43999 10.1407 9.50409 10.1669 9.57012C10.2254 9.73415 10.2664 9.89066 10.2992 10.0636C10.0291 9.95116 9.80213 9.80223 9.56168 9.62229C9.49513 9.57274 9.42857 9.52319 9.36 9.47213C9.30979 9.43431 9.25959 9.39648 9.20786 9.35751C9.47809 9.59245 9.74873 9.82556 10.0263 10.0489C10.0939 10.1055 10.1614 10.1622 10.231 10.2205C10.231 10.2464 10.231 10.2723 10.231 10.299C9.2214 10.3338 8.28994 10.3161 7.45608 9.56836C7.2994 9.33734 7.30432 9.06004 7.27251 8.77647C7.22552 8.55218 7.1899 8.46737 7.02526 8.33762C6.93523 8.33762 6.84519 8.33762 6.75243 8.33762C6.73977 8.4881 6.73977 8.4881 6.72686 8.64163C6.70128 8.94563 6.70128 8.94563 6.54781 9.12215C6.36504 9.14575 6.36504 9.14575 6.1471 9.14667C6.07553 9.14798 6.00396 9.1493 5.93023 9.15065C5.70611 9.11886 5.61023 9.076 5.45651 8.88679C5.45651 8.78323 5.45651 8.67968 5.45651 8.57298C5.59156 8.5212 5.72661 8.46942 5.86575 8.41607C5.82738 8.14508 5.76052 8.03703 5.57427 7.86843C5.50675 7.80677 5.50675 7.80677 5.43786 7.74385C5.39056 7.70194 5.34326 7.66002 5.29452 7.61683C5.22436 7.55258 5.22436 7.55258 5.15278 7.48704C4.86112 7.22368 4.62874 7.03928 4.23945 7.04498C3.89966 7.13136 3.61929 7.40044 3.34211 7.63154C3.29675 7.66815 3.25138 7.70476 3.20464 7.74248C2.73711 8.1567 2.33885 8.86014 2.1826 9.51442C2.15561 9.8222 2.16021 10.1272 2.16555 10.4362C2.1668 10.5289 2.16804 10.6215 2.16932 10.7169C2.17147 10.8716 2.17364 11.0262 2.17635 11.1808C2.18269 11.571 2.18111 11.9605 2.17673 12.3506C2.17389 12.6524 2.17401 12.9541 2.17455 13.2559C2.17424 13.4049 2.17279 13.5539 2.17014 13.7029C2.14802 14.7344 2.14802 14.7344 2.5668 15.6114C2.83492 15.9155 3.03407 16.0042 3.41032 16.0261C3.55681 15.9556 3.55681 15.9556 3.61494 15.7907C3.59755 15.3407 3.43263 14.9924 3.2057 14.6335C2.76767 13.8148 2.77078 12.7979 2.86467 11.868C3.09592 10.9028 3.76713 10.1627 4.50162 9.67133C4.54664 9.69722 4.59165 9.72311 4.63804 9.74978C4.60911 9.77941 4.58018 9.80904 4.55038 9.83957C3.89944 10.5422 3.52797 11.3178 3.47853 12.3387C3.47157 12.6559 3.47198 12.9727 3.47426 13.29C3.47457 13.3725 3.47488 13.455 3.4752 13.5401C3.47599 13.7411 3.47711 13.9421 3.47853 14.1432C3.55828 14.1776 3.55828 14.1776 3.63965 14.2128C3.84223 14.3111 3.95545 14.4249 4.10944 14.6041C4.15621 14.6573 4.20298 14.7105 4.25118 14.7653C4.48855 15.1034 4.46727 15.5305 4.43342 15.9476C4.32334 16.2958 4.11277 16.4767 3.84007 16.6567C3.53529 16.8032 3.33278 16.7833 3.00108 16.7321C2.776 16.5768 2.55092 16.4215 2.31902 16.2614C2.29651 19.2905 2.274 22.3196 2.25081 25.4405C2.63345 25.4405 3.01609 25.4405 3.41032 25.4405C3.41955 25.3223 3.42878 25.2042 3.4383 25.0825C3.61249 23.0387 3.96526 21.0713 4.63804 19.1642C4.6901 19.0129 4.74205 18.8615 4.7939 18.71C4.92196 18.3375 5.05217 17.9661 5.18369 17.5951C5.2287 17.5951 5.27372 17.5951 5.3201 17.5951C5.40007 18.3694 5.27915 18.9476 5.05154 19.6741C4.75552 20.6479 4.7287 21.5449 4.72728 22.5661C4.72541 23.6132 4.63094 24.5079 4.36521 25.5189C4.77036 25.5189 5.1755 25.5189 5.59292 25.5189C5.59574 25.3603 5.59855 25.2018 5.60145 25.0384C5.62448 24.4867 5.7298 23.9712 5.85722 23.4399C5.87473 23.3669 5.89224 23.2938 5.91028 23.2186C5.98739 22.9091 6.068 22.609 6.18174 22.3146C6.82098 20.6171 6.04109 18.1305 5.64017 16.4693C5.59492 16.2702 5.55791 16.0713 5.52472 15.8691C5.83841 16.1578 6.11787 16.4711 6.39009 16.8106C6.42168 16.8497 6.45327 16.8887 6.48582 16.929C6.86502 17.4079 7.06552 17.7519 7.06875 18.4084C7.07012 18.4726 7.07149 18.5369 7.07291 18.6031C7.07711 18.8149 7.07944 19.0268 7.08174 19.2387C7.0843 19.3875 7.08697 19.5362 7.08975 19.685C7.09675 20.0772 7.10215 20.4693 7.10723 20.8615C7.11264 21.2554 7.11967 21.6493 7.1265 22.0432C7.14905 23.385 7.16522 24.7261 7.16167 26.0681C7.27421 26.0681 7.38675 26.0681 7.5027 26.0681C7.5027 25.861 7.5027 25.6539 7.5027 25.4405C7.52521 25.4405 7.54772 25.4405 7.57091 25.4405C7.57091 25.6735 7.57091 25.9065 7.57091 26.1466C3.82331 26.1854 3.82331 26.1854 0 26.225C0 25.5778 0 24.9305 0 24.2637C0.170921 24.1666 0.170921 24.1666 0.345295 24.0675C0.889791 23.725 1.23269 23.2923 1.43233 22.6161C1.49011 22.3363 1.50965 22.0762 1.51133 21.7888C1.512 21.702 1.51267 21.6153 1.51336 21.5259C1.51375 21.4313 1.51414 21.3366 1.51455 21.2391C1.51522 21.1386 1.51589 21.0381 1.51659 20.9346C1.51843 20.6578 1.51986 20.381 1.52122 20.1043C1.52274 19.8103 1.52463 19.5164 1.52647 19.2225C1.53074 18.5276 1.53439 17.8327 1.53791 17.1378C1.53923 16.879 1.54058 16.6202 1.54193 16.3615C1.54759 15.2749 1.55313 14.1883 1.55818 13.1017C1.56384 11.8895 1.57059 10.6775 1.5813 9.46536C1.58544 8.99415 1.58851 8.52294 1.59103 8.05172C1.59261 7.76428 1.59476 7.47688 1.59839 7.18946C1.60224 6.88438 1.6035 6.57934 1.60445 6.27423C1.60599 6.19034 1.60754 6.10645 1.60913 6.02002C1.60758 5.3949 1.46752 4.8922 1.10884 4.41305C0.756963 4.02783 0.477388 3.92851 0 3.70887C0 2.95807 0 2.20727 0 1.43372Z" fill="url(#paint2_linear_221_697)"/>
<path d="M4.56958 7.00336C4.93242 7.19877 5.22008 7.46626 5.5202 7.76828C5.56034 7.80802 5.60048 7.84777 5.64183 7.88871C5.73942 7.98546 5.83661 8.08275 5.9337 8.18016C5.9112 8.28372 5.88869 8.38727 5.8655 8.49397C5.66292 8.53281 5.66292 8.53281 5.45626 8.57242C5.53255 8.86475 5.53255 8.86475 5.72908 9.04314C5.86679 9.0507 6.00472 9.05333 6.14259 9.05295C6.21653 9.05315 6.29047 9.05336 6.36665 9.05356C6.54227 9.06677 6.54227 9.06677 6.61577 8.96469C6.63151 8.85898 6.64384 8.75257 6.65413 8.64597C6.66398 8.54403 6.67383 8.44209 6.68397 8.33706C6.83744 8.27822 6.83744 8.27822 7.02501 8.25861C7.17421 8.35668 7.17421 8.35668 7.29783 8.57242C7.32271 8.7155 7.34365 8.85951 7.36177 9.00392C7.40618 9.34576 7.40618 9.34576 7.57492 9.62664C8.46175 10.1692 9.16751 10.238 10.1625 10.2199C9.62231 9.79277 9.62231 9.79277 9.0712 9.35696C9.13872 9.31812 9.13872 9.31812 9.20761 9.27851C9.32328 9.34162 9.32328 9.34162 9.45965 9.44246C9.50845 9.47811 9.55725 9.51376 9.60752 9.55049C9.65843 9.58856 9.70934 9.62664 9.76179 9.66587C9.81322 9.70364 9.86466 9.74141 9.91765 9.78033C10.0451 9.87401 10.1721 9.96826 10.2989 10.063C10.2758 10.0092 10.2527 9.95536 10.229 9.89989C10.1252 9.65711 10.0224 9.41388 9.91952 9.17063C9.88316 9.08588 9.8468 9.00114 9.80935 8.91382C9.77528 8.83291 9.74121 8.75201 9.7061 8.66865C9.65842 8.55649 9.65842 8.55649 9.60977 8.44206C9.5896 8.38152 9.56943 8.32098 9.54864 8.25861C9.57115 8.20683 9.59366 8.15505 9.61685 8.1017C10.1284 9.08237 10.1284 9.08237 10.6399 10.063C10.6625 9.26046 10.685 8.45788 10.7082 7.63098C10.7532 7.63098 10.7982 7.63098 10.8446 7.63098C10.9121 8.38178 10.9796 9.13258 11.0492 9.90613C11.2647 9.52965 11.2647 9.52965 11.4797 9.15276C11.5205 9.08197 11.5205 9.08197 11.5621 9.00974C11.5896 8.96167 11.6171 8.9136 11.6454 8.86408C11.7331 8.72643 11.8284 8.6113 11.9359 8.49397C11.8405 8.8445 11.7219 9.17167 11.5863 9.50406C11.5496 9.59447 11.5128 9.68488 11.4749 9.77803C11.447 9.8462 11.419 9.91436 11.3902 9.98459C11.4667 9.93498 11.4667 9.93498 11.5447 9.88437C11.6119 9.84139 11.6791 9.79841 11.7483 9.75413C11.8148 9.71135 11.8812 9.66857 11.9497 9.6245C12.1088 9.53222 12.2396 9.47299 12.4133 9.43541C12.1959 9.77544 11.9452 10.0331 11.663 10.2984C11.7703 10.2715 11.7703 10.2715 11.8796 10.2442C11.9737 10.2213 12.0677 10.1986 12.1618 10.1758C12.2089 10.1639 12.256 10.1521 12.3045 10.1398C12.533 10.0852 12.6654 10.0551 12.8908 10.1415C12.3168 10.4133 12.3168 10.4133 11.7312 10.6907C11.9554 10.8196 12.2056 10.798 12.4525 10.8111C12.5117 10.8145 12.5709 10.8179 12.6319 10.8215C13.1516 10.8508 13.6714 10.8759 14.1913 10.8997C14.5469 10.9161 14.9018 10.9374 15.2569 10.9637C15.9004 11.0393 15.9004 11.0393 16.466 10.77C16.5748 10.5716 16.5748 10.5716 16.6394 10.352C16.7767 9.94423 17.101 9.7002 17.418 9.47954C17.8901 9.36316 18.3366 9.37718 18.7565 9.67077C18.9786 9.92175 19.0866 10.1335 19.1316 10.4896C19.0924 10.8116 19.0316 11.1111 18.8929 11.3967C18.6685 11.5689 18.5996 11.574 18.3387 11.5764C18.2669 11.5774 18.1952 11.5784 18.1212 11.5794C18.0431 11.5796 17.965 11.5798 17.8845 11.58C17.8031 11.5806 17.7218 11.5813 17.638 11.5819C17.3728 11.5834 17.1077 11.5834 16.8425 11.5831C16.7529 11.5832 16.6633 11.5833 16.571 11.5834C15.2367 11.5832 13.9347 11.5179 12.6176 11.2686C12.3686 11.2287 12.3686 11.2287 11.9359 11.2398C12.4761 11.4987 13.0163 11.7576 13.5728 12.0244C13.3092 12.1254 13.2062 12.0589 12.9454 11.956C12.834 11.9127 12.834 11.9127 12.7203 11.8686C12.626 11.831 12.5318 11.7934 12.4346 11.7547C12.135 11.6366 11.8353 11.5184 11.5266 11.3967C12.0218 11.9663 12.517 12.5359 13.0272 13.1227C12.7894 13.1227 12.765 13.0893 12.5955 12.9134C12.5522 12.8692 12.5089 12.8249 12.4642 12.7793C12.4193 12.7325 12.3743 12.6856 12.3281 12.6373C12.0046 12.3029 11.6806 11.9942 11.322 11.7106C11.3628 11.8121 11.3628 11.8121 11.4045 11.9157C11.5051 12.1667 11.605 12.4181 11.7046 12.6697C11.7478 12.7786 11.7913 12.8873 11.835 12.9959C11.8978 13.152 11.9597 13.3084 12.0214 13.465C12.0589 13.5591 12.0964 13.6532 12.135 13.7501C12.2087 13.9857 12.2087 13.9857 12.1405 14.2211C12.1098 14.1573 12.0792 14.0936 12.0477 14.0279C11.9342 13.792 11.8207 13.5562 11.7071 13.3204C11.6579 13.2182 11.6088 13.116 11.5596 13.0138C11.4892 12.8671 11.4185 12.7204 11.3479 12.5739C11.3053 12.4855 11.2628 12.3972 11.219 12.3062C11.1334 12.1144 11.1334 12.1144 11.0492 12.0244C10.9912 12.6696 10.9619 13.3131 10.9426 13.9612C10.9382 14.1013 10.9382 14.1013 10.9337 14.2442C10.9265 14.4719 10.9196 14.6995 10.9128 14.9272C10.8903 14.9272 10.8678 14.9272 10.8446 14.9272C10.8408 14.8572 10.837 14.7872 10.8331 14.7151C10.8189 14.4523 10.8045 14.1896 10.79 13.9269C10.7838 13.8137 10.7777 13.7006 10.7716 13.5875C10.7627 13.4236 10.7537 13.2599 10.7447 13.0961C10.7393 12.9979 10.7339 12.8997 10.7284 12.7985C10.7059 12.4613 10.6724 12.1252 10.6399 11.789C10.3248 12.5916 10.0097 13.3942 9.68506 14.2211C9.59895 13.924 9.64999 13.8289 9.74447 13.5392C9.77239 13.4522 9.8003 13.3652 9.82906 13.2755C9.85891 13.1846 9.88876 13.0938 9.91952 13.0001C9.97787 12.8203 10.036 12.6404 10.094 12.4605C10.1202 12.3806 10.1463 12.3008 10.1733 12.2185C10.238 12.0338 10.238 12.0338 10.2307 11.8675C9.82534 12.2408 9.42895 12.6105 9.0712 13.0443C9.02618 13.0184 8.98117 12.9925 8.93478 12.9658C9.27241 12.5775 9.61003 12.1891 9.95788 11.789C9.77226 11.8958 9.60407 11.9995 9.43008 12.1258C9.35581 12.1797 9.35581 12.1797 9.28003 12.2346C9.22659 12.2737 9.17315 12.3127 9.11809 12.3529C9.0617 12.3939 9.00532 12.435 8.94722 12.4773C8.42582 12.8581 7.90816 13.2455 7.39271 13.6369C7.09179 13.8646 6.79058 14.0874 6.47829 14.294C6.42691 14.3285 6.37554 14.3631 6.32261 14.3986C6.22837 14.4613 6.1333 14.5223 6.0373 14.5814C5.89572 14.6701 5.89572 14.6701 5.72908 14.8487C5.65483 15.1203 5.65483 15.1203 5.72908 15.3979C5.87725 15.5678 6.00229 15.6869 6.17243 15.8196C6.26065 15.8941 6.34857 15.9691 6.43619 16.0445C6.4789 16.0811 6.52161 16.1177 6.56561 16.1554C7.10827 16.639 7.43561 17.2519 7.52672 18.0398C7.53562 18.2552 7.53628 18.4684 7.53342 18.6841C7.53346 18.7646 7.5335 18.845 7.53354 18.9279C7.53336 19.1907 7.53124 19.4534 7.52909 19.7162C7.52858 19.8996 7.5282 20.0831 7.52792 20.2666C7.52689 20.747 7.52421 21.2274 7.52118 21.7078C7.51838 22.199 7.51714 22.6903 7.51577 23.1815C7.51286 24.1435 7.5082 25.1055 7.50245 26.0675C7.38991 26.0675 7.27737 26.0675 7.16142 26.0675C7.11124 25.1015 7.0811 24.1373 7.06908 23.1697C7.06423 22.794 7.058 22.4183 7.05205 22.0427C7.04462 21.5689 7.0376 21.0951 7.03192 20.6213C7.02723 20.2339 7.02126 19.8466 7.01443 19.4594C7.01208 19.3128 7.01021 19.1663 7.00882 19.0197C7.00684 18.8157 7.00321 18.6118 6.99921 18.4078C6.99902 18.348 6.99884 18.2882 6.99864 18.2266C6.98445 17.6695 6.76354 17.3475 6.42394 16.9767C6.15353 16.6745 5.90517 16.3557 5.66088 16.0255C5.66088 16.2689 5.69881 16.4445 5.75573 16.6783C6.74855 20.8499 6.74855 20.8499 6.20653 22.4587C5.90087 23.4757 5.70427 24.4519 5.59267 25.5184C5.18753 25.5184 4.78238 25.5184 4.36496 25.5184C4.40845 25.1181 4.44761 24.8076 4.53894 24.4332C4.66558 23.8208 4.65478 23.2278 4.65119 22.6027C4.64735 21.3709 4.76221 20.3616 5.12802 19.1961C5.29373 18.6641 5.33277 18.1577 5.31985 17.5946C5.27483 17.5946 5.22981 17.5946 5.18343 17.5946C5.1755 17.6625 5.16757 17.7304 5.1594 17.8003C5.11483 18.0676 5.04607 18.2885 4.95404 18.5388C4.92164 18.6282 4.88924 18.7177 4.85586 18.8098C4.82187 18.9023 4.78789 18.9948 4.75288 19.0901C4.3607 20.1578 4.07468 21.2129 3.87506 22.3467C3.84508 22.5164 3.81412 22.6858 3.78307 22.8552C3.66812 23.494 3.57919 24.1295 3.52104 24.7785C3.49995 25.0119 3.47486 25.2163 3.41007 25.4399C3.02743 25.4399 2.64479 25.4399 2.25056 25.4399C2.25056 22.3849 2.25056 19.33 2.25056 16.1824C2.49815 16.3377 2.74574 16.4931 3.00083 16.6531C3.46884 16.7245 3.72897 16.6758 4.11984 16.3773C4.28662 16.1986 4.35559 16.0356 4.38307 15.7757C4.38255 15.6882 4.38255 15.6882 4.38201 15.5989C4.38236 15.5408 4.38271 15.4826 4.38307 15.4227C4.34124 15.0031 4.19718 14.7849 3.92161 14.5153C3.86745 14.4615 3.81329 14.4077 3.75749 14.3522C3.62206 14.2185 3.62207 14.2185 3.47827 14.1426C3.41518 13.9249 3.4013 13.7934 3.40101 13.5686C3.40084 13.5026 3.40068 13.4365 3.40051 13.3685C3.40219 13.025 3.40532 12.6816 3.41007 12.3382C3.41042 12.2574 3.41077 12.1766 3.41113 12.0933C3.45009 11.1187 4.00054 10.4063 4.56958 9.74923C3.85018 10.1039 3.42282 10.6808 3.06903 11.4752C3.03052 11.5583 3.03052 11.5583 2.99124 11.6431C2.76439 12.5113 2.84541 13.7359 3.20545 14.5349C3.3108 14.7288 3.4243 14.9028 3.54648 15.0841C3.69308 15.3983 3.70112 15.6029 3.61469 15.947C3.41007 16.104 3.41007 16.104 3.18355 16.098C2.75903 15.9754 2.49055 15.6523 2.25219 15.2436C2.01992 14.713 2.08857 14.0525 2.10136 13.4758C2.1022 13.3249 2.10273 13.1741 2.10295 13.0232C2.10382 12.724 2.10662 12.4249 2.11085 12.1257C2.1151 11.763 2.10856 11.4021 2.09576 11.0397C2.06457 10.0348 2.04874 9.24246 2.59159 8.41552C2.63107 8.35059 2.67054 8.28566 2.71122 8.21877C2.96675 7.84422 3.278 7.57545 3.61895 7.31227C3.65834 7.28129 3.69774 7.25031 3.73833 7.21839C4.02615 7.00915 4.23296 6.94854 4.56958 7.00336Z" fill="#1A1A24"/>
<path d="M31.6473 5.51331C31.8515 5.56629 32.0386 5.63982 32.2313 5.73396C32.2834 5.75873 32.3355 5.78351 32.3893 5.80904C32.5604 5.92322 32.6408 6.02185 32.7386 6.21939C32.7955 6.86551 32.5655 7.64174 32.3155 8.21045C32.1929 8.33763 32.1929 8.33763 31.976 8.36C31.8929 8.35424 31.8097 8.34847 31.724 8.34253C31.3782 8.31931 31.1712 8.31559 30.897 8.57299C30.7846 8.75984 30.7846 8.75984 30.7051 8.97016C30.6623 9.07347 30.6623 9.07347 30.6186 9.17886C30.5474 9.34967 30.5474 9.34967 30.5559 9.51443C30.5847 9.45304 30.6134 9.39166 30.6431 9.32841C30.6804 9.24902 30.7178 9.16963 30.7563 9.08784C30.7935 9.00865 30.8307 8.92947 30.869 8.84788C30.9652 8.65144 30.9652 8.65144 31.0334 8.57299C31.516 8.50991 31.9448 8.7114 32.3975 8.8868C32.4017 8.80752 32.406 8.72823 32.4103 8.64654C32.4518 8.24875 32.5678 7.87951 32.6829 7.50358C32.844 6.97518 32.9692 6.45948 32.8068 5.91048C32.773 5.83038 32.773 5.83038 32.7386 5.74867C33.148 5.88986 33.531 6.09516 33.9194 6.29784C33.9885 6.33324 34.0577 6.36863 34.1289 6.4051C34.1946 6.43928 34.2602 6.47347 34.3278 6.50868C34.3877 6.53973 34.4476 6.57078 34.5093 6.60277C34.6483 6.69011 34.6483 6.69011 34.7165 6.84701C34.6739 7.00051 34.6739 7.00051 34.6008 7.19174C34.5736 7.26396 34.5463 7.33617 34.5182 7.41058C34.4876 7.48977 34.4571 7.56896 34.4256 7.65055C34.3942 7.73333 34.3627 7.8161 34.3304 7.90139C34.2265 8.17454 34.122 8.44731 34.0174 8.72009C33.9457 8.90832 33.8741 9.09658 33.8026 9.28487C33.6929 9.57339 33.5832 9.86188 33.4733 10.1503C33.1482 11.0028 32.8263 11.8569 32.5058 12.7117C32.425 12.927 32.3441 13.1423 32.2632 13.3575C32.0083 14.0359 31.7554 14.715 31.5108 15.3984C31.4658 15.3984 31.4208 15.3984 31.3744 15.3984C31.353 15.3045 31.3315 15.2105 31.3094 15.1137C31.2799 14.9847 31.2504 14.8557 31.221 14.7267C31.207 14.6654 31.193 14.6042 31.1786 14.5411C31.0406 13.9374 30.9006 13.3342 30.7606 12.731C30.7758 12.8266 30.7911 12.9221 30.8068 13.0205C31.3523 16.5141 31.3523 16.5141 30.6242 17.9089C30.5791 17.9089 30.5341 17.9089 30.4877 17.9089C29.8311 16.213 29.1885 14.5105 28.5556 12.8025C28.2875 12.0793 28.0185 11.3569 27.739 10.6394C27.696 10.5284 27.653 10.4174 27.6101 10.3064C27.5332 10.1079 27.455 9.91008 27.3761 9.71263C27.343 9.6273 27.31 9.54197 27.2759 9.45406C27.2472 9.38157 27.2184 9.30907 27.1888 9.23439C27.1456 9.04371 27.1456 9.04371 27.1874 8.88345C27.3036 8.69488 27.4321 8.53693 27.574 8.37318C27.6602 8.27382 27.6602 8.27382 27.748 8.17245C27.8081 8.10398 27.8681 8.03552 27.93 7.96498C27.9901 7.8953 28.0501 7.82562 28.112 7.75383C28.1694 7.68799 28.2268 7.62215 28.286 7.55432C28.3387 7.49387 28.3914 7.43342 28.4457 7.37114C28.578 7.23928 28.578 7.23928 28.7144 7.23928C28.5978 7.71656 28.4635 8.17219 28.2894 8.62601C28.2315 8.82725 28.2275 8.99002 28.2369 9.20062C28.2863 9.18363 28.3358 9.16664 28.3867 9.14913C29.1136 8.90832 29.1136 8.90832 29.3964 8.96526C29.65 9.28485 29.7074 9.65455 29.8057 10.0636C29.8282 9.67526 29.8507 9.28692 29.8739 8.8868C29.7613 8.86091 29.6488 8.83502 29.5329 8.80835C29.478 8.76466 29.4231 8.72097 29.3666 8.67596C29.1917 8.54661 29.1917 8.54661 28.9787 8.62202C28.7986 8.72108 28.7121 8.80358 28.578 8.96526C28.5104 8.96526 28.4429 8.96526 28.3733 8.96526C28.4101 8.50092 28.498 8.1101 28.6419 7.67568C28.7879 7.21946 28.9114 6.77752 28.9872 6.29784C29.0097 6.29784 29.0322 6.29784 29.0554 6.29784C29.0704 6.37278 29.0853 6.44772 29.1007 6.52493C29.3394 7.69796 29.3394 7.69796 30.0103 8.57299C31.1439 7.23694 31.1439 7.23694 31.6473 5.51331Z" fill="url(#paint3_linear_221_697)"/>
<path d="M19.3016 11.554C19.3621 12.0494 19.1603 12.3273 18.9265 12.716C18.845 12.8556 18.7637 12.9953 18.6824 13.135C18.639 13.209 18.5956 13.283 18.5509 13.3593C18.3126 13.7701 18.0829 14.1872 17.8522 14.6038C17.7601 14.7696 17.6679 14.9354 17.5757 15.1012C17.4244 15.3734 17.2734 15.6457 17.1227 15.9182C17.0675 16.0178 17.0122 16.1174 16.957 16.217C16.8887 16.3407 16.8887 16.3407 16.819 16.4668C16.6609 16.737 16.6094 16.8004 16.3264 16.8786C16.2202 16.9016 16.1139 16.924 16.0074 16.9458C15.9511 16.9578 15.8947 16.9697 15.8366 16.9821C15.7172 17.0073 15.5977 17.0322 15.4782 17.0568C15.296 17.0944 15.1141 17.1331 14.9321 17.172C14.816 17.1963 14.6998 17.2206 14.5836 17.2449C14.5024 17.2622 14.5024 17.2622 14.4195 17.2798C14.1331 17.3382 13.8646 17.372 13.5723 17.3595C14.0095 16.2839 14.4627 15.2181 14.9243 14.1562C15.0362 13.8985 15.1477 13.6406 15.2592 13.3827C15.3305 13.2184 15.4019 13.0541 15.4733 12.8898C15.5064 12.8129 15.5396 12.736 15.5738 12.6568C15.62 12.551 15.62 12.551 15.6671 12.443C15.694 12.3809 15.7209 12.3189 15.7487 12.2549C15.8231 12.1031 15.8231 12.1031 15.9595 11.9462C16.1543 11.9307 16.343 11.9245 16.5379 11.9248C16.6565 11.9232 16.7751 11.9215 16.8937 11.9199C17.0807 11.9181 17.2676 11.9168 17.4545 11.9163C17.635 11.9156 17.8154 11.9129 17.9958 11.9101C18.0511 11.9105 18.1064 11.9109 18.1634 11.9113C18.5996 11.9027 18.9068 11.554 19.3016 11.554Z" fill="#1A1A24"/>
<path d="M14.4681 20.8607C14.5263 20.8622 14.5845 20.8638 14.6445 20.8655C14.8104 20.8714 14.9759 20.8803 15.1416 20.8901C15.2142 20.8929 15.2869 20.8958 15.3617 20.8987C15.6238 20.9304 15.7683 20.9844 15.9582 21.199C16.2961 21.7138 16.6488 22.392 16.6374 23.0497C16.5605 23.3801 16.4566 23.5104 16.2414 23.7438C16.2078 23.7807 16.1742 23.8176 16.1395 23.8555C15.862 24.1553 15.5704 24.4346 15.2724 24.707C15.1238 24.8445 14.9783 24.9838 14.8339 25.1269C14.7936 25.1667 14.7533 25.2066 14.7118 25.2476C14.6329 25.3259 14.5543 25.4044 14.4758 25.4833C14.2018 25.7542 14.2018 25.7542 14.0503 25.7542C14.0503 25.806 14.0503 25.8578 14.0503 25.9111C13.9378 25.9111 13.8252 25.9111 13.7093 25.9111C13.6135 24.9466 13.5964 23.9781 13.5729 23.0083C13.5704 22.9196 13.568 22.8308 13.5655 22.7394C13.5593 22.4907 13.5551 22.2421 13.5515 21.9933C13.5495 21.9182 13.5475 21.843 13.5454 21.7656C13.5432 21.4655 13.5435 21.2645 13.6717 20.9995C13.9347 20.8341 14.1732 20.8498 14.4681 20.8607Z" fill="url(#paint4_linear_221_697)"/>
<path d="M6.75228 10.5341C7.02641 10.5788 7.20166 10.6796 7.43328 10.8506C7.87475 11.1354 8.25047 11.141 8.74732 11.1176C8.82452 11.1161 8.90171 11.1146 8.98125 11.1131C9.35742 11.1037 9.72368 11.0793 10.0944 11.0048C9.80865 11.2841 9.50298 11.5005 9.18214 11.7207C8.79274 11.991 8.40792 12.266 8.03115 12.5591C7.59624 12.8969 7.15618 13.2248 6.71392 13.5496C6.64975 13.597 6.58559 13.6443 6.51949 13.6931C6.2169 13.9147 5.91831 14.126 5.59277 14.2998C5.69468 12.9167 6.09192 11.6915 6.75228 10.5341Z" fill="url(#paint5_linear_221_697)"/>
<path d="M30.564 0.295984C30.6769 0.384161 30.7878 0.475718 30.8965 0.570571C30.9694 0.633373 30.9694 0.633373 31.0438 0.697445C31.5066 1.15894 31.7184 1.80328 31.9196 2.45345C31.9196 2.53112 31.9196 2.60879 31.9196 2.68881C31.6348 2.72976 31.4966 2.69011 31.2764 2.49421C30.9035 2.21715 30.5361 2.23743 30.1036 2.24751C30.025 2.24833 29.9464 2.24914 29.8654 2.24998C29.2544 2.26816 28.7933 2.39938 28.2364 2.68881C27.9599 2.76858 27.7029 2.77369 27.418 2.76727C27.6078 2.48428 27.8123 2.23519 28.0318 1.98273C28.0875 1.89796 28.1429 1.81297 28.1981 1.72776C28.4124 1.46317 28.4739 1.46671 28.7821 1.43356C29.0408 1.42517 29.2992 1.42616 29.5579 1.42866C29.6625 1.42919 29.6625 1.42919 29.7692 1.42973C29.9404 1.43065 30.1115 1.43194 30.2826 1.43356C30.2826 1.48534 30.2826 1.53712 30.2826 1.59047C30.4627 1.59047 30.6428 1.59047 30.8283 1.59047C30.7945 1.47396 30.7945 1.47396 30.7601 1.35511C30.2241 1.28227 29.6921 1.26806 29.153 1.26684C29.0531 1.26631 29.0531 1.26631 28.9512 1.26577C28.8883 1.26592 28.8254 1.26608 28.7605 1.26623C28.7039 1.26632 28.6473 1.26641 28.5891 1.2665C28.4286 1.27013 28.4286 1.27013 28.2364 1.35511C28.4194 0.838499 28.881 0.389699 29.3107 0.153787C29.7764 0.0404627 30.1394 0.0195119 30.564 0.295984Z" fill="url(#paint6_linear_221_697)"/>
<path d="M6.59475 5.32697C7.0304 5.50314 7.43694 5.78188 7.70737 6.21969C7.79976 6.63823 7.75227 6.96698 7.60079 7.35726C7.27635 7.74002 6.98988 7.80334 6.53933 7.82308C6.29916 7.81379 6.15722 7.79877 5.93826 7.68088C5.7659 7.42855 5.66438 7.15996 5.54767 6.86968C5.42291 6.6242 5.27869 6.5417 5.04732 6.45505C5.02732 6.06398 5.03481 5.82364 5.25194 5.5136C5.66537 5.17381 6.11147 5.1985 6.59475 5.32697Z" fill="#1A1A24"/>
<path d="M31.0044 2.58874C31.3157 2.73457 31.5659 2.87917 31.7153 3.23782C31.7871 3.83259 31.7448 4.38558 31.4424 4.88534C31.2725 5.09251 31.0979 5.28719 30.9133 5.47711C30.7417 5.69337 30.6998 5.8648 30.624 6.1406C30.405 6.44299 30.1732 6.65802 29.8439 6.76823C29.7862 6.76823 29.7285 6.76823 29.6691 6.76823C29.6009 6.68977 29.6009 6.68977 29.5625 6.44461C29.6118 6.05412 29.7322 5.94361 29.9933 5.70481C30.2024 5.55007 30.3805 5.48702 30.624 5.43452C30.6099 5.35523 30.5958 5.27594 30.5813 5.19425C30.5525 4.8465 30.5942 4.66088 30.6922 4.33617C30.6246 4.31028 30.5571 4.28439 30.4875 4.25772C30.5326 3.99882 30.5776 3.73992 30.624 3.47318C30.5339 3.55085 30.4439 3.62852 30.3511 3.70854C30.138 3.69873 30.138 3.69873 29.9419 3.63009C29.8082 3.39937 29.7842 3.34128 29.7799 3.08091C29.778 3.02752 29.776 2.97412 29.774 2.9191C29.8055 2.7671 29.8055 2.7671 29.9214 2.63195C30.2509 2.42152 30.6506 2.47406 31.0044 2.58874ZM30.8286 4.88534C30.7611 5.00185 30.7611 5.00185 30.6922 5.1207C30.7597 5.09481 30.8272 5.06892 30.8968 5.04225C30.8743 4.99047 30.8518 4.93869 30.8286 4.88534Z" fill="url(#paint7_linear_221_697)"/>
<path d="M28.2373 3.31726C28.3498 3.31726 28.4624 3.31726 28.5783 3.31726C28.6008 3.60205 28.6234 3.88683 28.6465 4.18025C28.7141 3.92135 28.7816 3.66246 28.8512 3.39571C29.3117 3.35719 29.6037 3.46834 30.0107 3.70953C30.0796 3.74189 30.1485 3.77425 30.2196 3.80759C30.3517 3.94489 30.3517 3.94489 30.3901 4.22438C30.3567 4.77284 30.1958 5.27193 29.8316 5.63654C29.5331 5.90115 29.2953 5.94745 28.9194 5.90622C28.7188 5.85823 28.6219 5.8018 28.4419 5.67086C28.3555 5.3355 28.3623 5.0652 28.4419 4.72942C28.3744 4.70353 28.3069 4.67764 28.2373 4.65097C28.2373 4.21085 28.2373 3.77072 28.2373 3.31726Z" fill="url(#paint8_linear_221_697)"/>
<path d="M7.30719 3.5274C7.65172 3.84616 7.8515 4.23139 8.0532 4.67478C8.07702 4.72684 8.10084 4.7789 8.12538 4.83253C8.28363 5.18293 8.43093 5.52492 8.52638 5.90552C8.50387 5.98319 8.48136 6.06086 8.45817 6.14088C8.42555 6.11359 8.39292 6.08631 8.35931 6.05819C8.2093 5.9332 8.05879 5.80904 7.90826 5.68487C7.85696 5.64194 7.80565 5.59901 7.7528 5.55478C6.88362 4.84066 6.08497 4.78252 5.04785 4.80717C5.10726 4.19217 5.39869 3.89175 5.80238 3.51269C6.22748 3.26433 6.8869 3.27103 7.30719 3.5274Z" fill="#1A1A24"/>
<path d="M31.2388 5.12146C31.3289 5.14735 31.4189 5.17324 31.5116 5.19991C31.5765 6.07583 31.102 6.76276 30.6388 7.41132C30.347 7.77964 30.347 7.77964 30.0495 7.8232C29.9918 7.81187 29.9341 7.80055 29.8747 7.78888C29.7937 7.61726 29.7937 7.61726 29.7383 7.39661C29.8852 7.02968 30.1275 6.78275 30.3777 6.50911C30.7513 6.09064 31.07 5.70419 31.2388 5.12146Z" fill="url(#paint9_linear_221_697)"/>
<path d="M11.7988 11.1619C13.2793 11.1011 13.2793 11.1011 13.6476 11.458C13.7884 11.7136 13.8544 11.9671 13.9132 12.2603C13.7444 12.2215 13.7444 12.2215 13.5722 12.1818C13.5722 12.1301 13.5722 12.0783 13.5722 12.0249C13.4948 11.9974 13.4175 11.9699 13.3377 11.9416C12.8138 11.742 12.3075 11.4856 11.7988 11.2404C11.7988 11.2145 11.7988 11.1886 11.7988 11.1619Z" fill="url(#paint10_linear_221_697)"/>
<path d="M29.0309 2.6012C29.1091 2.601 29.1874 2.60079 29.268 2.60059C29.4657 2.61101 29.4657 2.61101 29.6021 2.68946C29.6021 2.81891 29.6021 2.94836 29.6021 3.08173C29.5224 3.08082 29.4426 3.07991 29.3605 3.07897C29.2549 3.07823 29.1493 3.07752 29.0437 3.07682C28.9912 3.07617 28.9388 3.07551 28.8847 3.07483C28.6141 3.07349 28.3658 3.08282 28.1016 3.16018C28.1407 2.93523 28.1603 2.85724 28.3062 2.68946C28.5438 2.59084 28.7804 2.60055 29.0309 2.6012Z" fill="url(#paint11_linear_221_697)"/>
<path d="M12.072 11.3971C12.4032 11.4251 12.7115 11.6077 13.0141 11.755C13.0678 11.7809 13.1216 11.8067 13.177 11.8333C13.3089 11.8968 13.4407 11.9607 13.5725 12.0247C13.3315 12.1171 13.2691 12.0839 13.0346 11.9907C12.9706 11.9657 12.9066 11.9406 12.8407 11.9149C12.7741 11.888 12.7075 11.8612 12.6389 11.8335C12.5715 11.8069 12.5041 11.7804 12.4347 11.753C12.2681 11.6873 12.1018 11.621 11.9355 11.554C11.9806 11.5022 12.0256 11.4504 12.072 11.3971Z" fill="#1A1A24"/>
<path d="M10.0268 12.6521C10.0719 12.678 10.1169 12.7039 10.1632 12.7306C10.1241 13.1061 10.028 13.4004 9.88616 13.7406C9.84879 13.8311 9.81143 13.9215 9.77293 14.0146C9.74418 14.0828 9.71543 14.1509 9.6858 14.2212C9.61012 13.96 9.6216 13.9173 9.70046 13.6711C9.71914 13.6117 9.73782 13.5522 9.75707 13.491C9.77716 13.4294 9.79725 13.3678 9.81795 13.3042C9.83778 13.2417 9.85761 13.1791 9.87803 13.1147C9.92708 12.9603 9.97688 12.8061 10.0268 12.6521Z" fill="#1A1A24"/>
<path d="M11.8679 8.49426C11.8904 8.54604 11.9129 8.59782 11.9361 8.65117C11.8778 8.85251 11.8778 8.85251 11.7869 9.08757C11.7578 9.16534 11.7287 9.24311 11.6987 9.32323C11.5951 9.51416 11.5951 9.51416 11.4467 9.58005C11.3851 9.58627 11.3851 9.58627 11.3223 9.59261C11.4127 9.30839 11.523 9.07207 11.6718 8.82279C11.7086 8.76079 11.7453 8.6988 11.7832 8.63493C11.8112 8.58851 11.8391 8.54209 11.8679 8.49426Z" fill="#1A1A24"/>
<path d="M9.54883 8.10242C9.70481 8.27127 9.82509 8.44452 9.94101 8.65159C9.97161 8.70499 10.0022 8.75839 10.0337 8.8134C10.0945 8.9654 10.0945 8.9654 10.0263 9.20077C9.81824 8.91362 9.54883 8.48852 9.54883 8.10242Z" fill="#1A1A24"/>
<path d="M9.07129 9.27905C9.39705 9.40786 9.67108 9.61369 9.95797 9.82823C9.91296 9.88001 9.86794 9.93179 9.82156 9.98513C9.69632 9.88247 9.57132 9.77943 9.44642 9.67622C9.37679 9.61888 9.30716 9.56154 9.23541 9.50246C9.18125 9.45463 9.12709 9.40679 9.07129 9.35751C9.07129 9.33162 9.07129 9.30573 9.07129 9.27905Z" fill="#1A1A24"/>
<defs>
<linearGradient id="paint0_linear_221_697" x1="14.0505" y1="1.43372" x2="14.0505" y2="26.25" gradientUnits="userSpaceOnUse">
<stop stop-color="#2563EB"/>
<stop offset="1" stop-color="#765AC9"/>
</linearGradient>
<linearGradient id="paint1_linear_221_697" x1="31.3494" y1="0" x2="31.3494" y2="26.1465" gradientUnits="userSpaceOnUse">
<stop stop-color="#2563EB"/>
<stop offset="1" stop-color="#765AC9"/>
</linearGradient>
<linearGradient id="paint2_linear_221_697" x1="6.65012" y1="1.43372" x2="6.65012" y2="26.225" gradientUnits="userSpaceOnUse">
<stop stop-color="#2563EB"/>
<stop offset="1" stop-color="#765AC9"/>
</linearGradient>
<linearGradient id="paint3_linear_221_697" x1="30.9364" y1="5.51331" x2="30.9364" y2="17.9089" gradientUnits="userSpaceOnUse">
<stop stop-color="#2563EB"/>
<stop offset="1" stop-color="#765AC9"/>
</linearGradient>
<linearGradient id="paint4_linear_221_697" x1="15.0913" y1="20.8545" x2="15.0913" y2="25.9111" gradientUnits="userSpaceOnUse">
<stop stop-color="#2563EB"/>
<stop offset="1" stop-color="#765AC9"/>
</linearGradient>
<linearGradient id="paint5_linear_221_697" x1="7.84358" y1="10.5341" x2="7.84358" y2="14.2998" gradientUnits="userSpaceOnUse">
<stop stop-color="#2563EB"/>
<stop offset="1" stop-color="#765AC9"/>
</linearGradient>
<linearGradient id="paint6_linear_221_697" x1="29.6688" y1="0.0750732" x2="29.6688" y2="2.76925" gradientUnits="userSpaceOnUse">
<stop stop-color="#2563EB"/>
<stop offset="1" stop-color="#765AC9"/>
</linearGradient>
<linearGradient id="paint7_linear_221_697" x1="30.6541" y1="2.4884" x2="30.6541" y2="6.76823" gradientUnits="userSpaceOnUse">
<stop stop-color="#2563EB"/>
<stop offset="1" stop-color="#765AC9"/>
</linearGradient>
<linearGradient id="paint8_linear_221_697" x1="29.3137" y1="3.31726" x2="29.3137" y2="5.91942" gradientUnits="userSpaceOnUse">
<stop stop-color="#2563EB"/>
<stop offset="1" stop-color="#765AC9"/>
</linearGradient>
<linearGradient id="paint9_linear_221_697" x1="30.6279" y1="5.12146" x2="30.6279" y2="7.8232" gradientUnits="userSpaceOnUse">
<stop stop-color="#2563EB"/>
<stop offset="1" stop-color="#765AC9"/>
</linearGradient>
<linearGradient id="paint10_linear_221_697" x1="12.856" y1="11.1316" x2="12.856" y2="12.2603" gradientUnits="userSpaceOnUse">
<stop stop-color="#2563EB"/>
<stop offset="1" stop-color="#765AC9"/>
</linearGradient>
<linearGradient id="paint11_linear_221_697" x1="28.8518" y1="2.60059" x2="28.8518" y2="3.16018" gradientUnits="userSpaceOnUse">
<stop stop-color="#2563EB"/>
<stop offset="1" stop-color="#765AC9"/>
</linearGradient>
</defs>
</svg>
